#!OML:ASF F:\VICON\USERDATA\INSTALL\rory3\rory3.ASF
:FULLY-SPECIFIED
:DEGREES
373
root 3.80862 16.9098 -27.5178 21.0967 -7.53783 -2.07027
lowerback -16.2849 -2.70641 0.499335
upperback -11.5765 -3.70963 1.3077
thorax -3.1768 -1.89589 0.612148
lowerneck -16.4457 0.334482 -0.203646
upperneck 37.5113 -0.0277861 0.995943
head 16.1396 0.0240438 0.44264
rclavicle 1.38901e-014 -1.0138e-014
rhumerus -104.846 -82.8326 83.8327
rradius 13.3783
rwrist 78.9066
rhand -2.29993 4.44032
rfingers 7.12502
rthumb 23.3857 -24.1589
lclavicle 1.38901e-014 -1.0138e-014
lhumerus 49.595 -13.8991 48.6916
lradius 20.6801
lwrist -38.8691
lhand 1.74452 21.118
lfingers 7.12502
lthumb 27.2602 49.1678
rfemur -46.7277 7.34763 23.9237
rtibia 47.7128
rfoot -5.14726 -20.7062
rtoes 11.901
lfemur -22.2792 -3.14384 -25.2771
ltibia 36.8344
lfoot -32.6519 23.5956
ltoes -3.75365
374
root 3.79752 17.0357 -27.4513 20.6259 -7.45568 -1.76223
lowerback -15.9437 -2.69557 0.248336
upperback -11.2833 -3.66137 1.15863
thorax -3.02826 -1.85981 0.607635
lowerneck -15.7661 0.208149 -0.296948
upperneck 37.4725 -0.261159 1.16493
head 15.9563 -0.0652615 0.487874
rclavicle 5.34234e-015 2.127e-014
rhumerus -83.503 -82.4657 61.9893
rradius 13.4387
rwrist 75.0343
rhand -3.28472 4.50109
rfingers 7.12502
rthumb 22.4407 -24.2152
lclavicle 5.34234e-015 2.127e-014
lhumerus 48.854 -12.1829 50.9245
lradius 20.2405
lwrist -41.0203
lhand 1.32112 20.606
lfingers 7.12502
lthumb 26.8552 48.7187
rfemur -46.1638 7.22941 23.3567
rtibia 47.4926
rfoot -2.66282 -20.8587
rtoes 10.7958
lfemur -23.3529 -3.25739 -25.6815
ltibia 36.9259
lfoot -31.8223 23.3243
ltoes -4.6359
375
root 3.78664 17.1541 -27.3925 20.167 -7.24984 -1.64345
lowerback -15.3389 -2.57695 0.254402
upperback -10.4741 -3.49944 0.951119
thorax -2.47973 -1.77999 0.407647
lowerneck -17.9499 0.197289 -0.178517
upperneck 38.2801 -0.474367 1.53342
head 16.9262 -0.0716156 0.604937
rclavicle -2.45996e-014 -1.96797e-014
rhumerus -62.6544 -80.8616 40.3494
rradius 13.5403
rwrist 68.9958
rhand -4.22488 4.55589
rfingers 7.12502
rthumb 21.538 -24.2665
lclavicle -2.45996e-014 -1.96797e-014
lhumerus 49.3255 -10.0206 52.7225
lradius 19.6811
lwrist -42.2159
lhand 0.56118 20.0845
lfingers 7.12502
lthumb 26.1278 48.3069
rfemur -45.6777 6.98842 23.0504
rtibia 47.3582
rfoot 1.14889 -20.549
rtoes 4.60399
lfemur -24.4681 -3.53045 -25.7805
ltibia 37.0545
lfoot -30.8731 23.0077
ltoes -5.35288
376
root 3.77242 17.2593 -27.3495 19.9176 -7.13282 -1.59053
lowerback -15.0208 -2.53655 0.294794
upperback -9.70786 -3.44678 0.827799
thorax -1.8316 -1.75435 0.251567
lowerneck -19.6078 0.287949 -0.140546
upperneck 38.7226 -0.488382 1.85498
head 17.5965 -0.0143573 0.755137
rclavicle -1.60022e-014 3.18055e-015
rhumerus -50.3241 -78.9938 27.0517
rradius 13.7254
rwrist 63.3088
rhand -5.25833 5.40599
rfingers 7.12502
rthumb 20.5452 -23.5268
lclavicle -1.60022e-014 3.18055e-015
lhumerus 49.7003 -9.0077 52.2314
lradius 19.6393
lwrist -40.6997
lhand 0.383618 20.4412
lfingers 7.12502
lthumb 25.9578 48.6887
rfemur -45.5855 6.71463 22.8185
rtibia 47.3353
rfoot 3.21772 -20.5381
rtoes 3.94357
lfemur -25.8815 -3.78452 -25.7448
ltibia 37.1978
lfoot -29.4997 22.8233
ltoes -7.05194
377
root 3.75453 17.3556 -27.3154 19.7077 -7.044 -1.56213
lowerback -13.9378 -2.6266 0.0954162
upperback -10.15 -3.54192 0.990809
thorax -2.85454 -1.78861 0.589252
lowerneck -17.9038 0.27463 -0.371266
upperneck 38.6899 -0.442228 1.8955
head 17.1379 -0.0352599 0.813608
rclavicle -8.15763e-014 -3.67752e-014
rhumerus -33.8292 -72.6044 9.67808
rradius 14.1257
rwrist 54.7051
rhand -6.17951 6.10505
rfingers 7.12502
rthumb 19.6598 -22.9208
lclavicle -8.15763e-014 -3.67752e-014
lhumerus 47.8583 -9.40579 51.6906
lradius 20.1351
lwrist -38.2461
lhand 0.419956 21.6394
lfingers 7.12502
lthumb 25.9926 49.8817
rfemur -45.6293 6.48452 22.6448
rtibia 47.4218
rfoot 5.52091 -20.685
rtoes 4.75647
lfemur -27.3415 -3.85349 -25.6429
ltibia 37.3891
lfoot -27.9016 22.5763
ltoes -9.48176
378
root 3.74007 17.4464 -27.2751 19.4617 -6.9052 -1.60357
lowerback -13.7249 -2.66874 0.169743
upperback -9.74117 -3.60333 0.954372
thorax -2.53407 -1.82272 0.49873
lowerneck -17.0885 0.24522 -0.136563
upperneck 38.1543 -0.513602 1.77058
head 16.6439 -0.0511857 0.691021
rclavicle 6.68413e-015 -3.37934e-015
rhumerus -27.9648 -67.4647 2.43425
rradius 14.6352
rwrist 46.5674
rhand -7.50786 6.79927
rfingers 7.12502
rthumb 18.3823 -22.3522
lclavicle 6.68413e-015 -3.37934e-015
lhumerus 47.16 -9.02966 51.1561
lradius 20.4194
lwrist -35.0572
lhand -0.395551 23.0438
lfingers 7.12502
lthumb 25.2115 51.3985
rfemur -45.6509 5.86327 22.7063
rtibia 47.6294
rfoot 8.18715 -20.8417
rtoes 9.64944
lfemur -28.6366 -4.23166 -25.4118
ltibia 37.5988
lfoot -26.8897 22.0762
ltoes -10.4522
379
root 3.72884 17.5263 -27.2337 19.1664 -6.82599 -1.85457
lowerback -13.1191 -2.50834 0.341422
upperback -8.69364 -3.40411 0.897716
thorax -1.75211 -1.72618 0.359484
lowerneck -19.3142 0.297266 0.654666
upperneck 38.2173 -0.652992 1.55175
head 17.2425 -0.00592575 0.43548
rclavicle 4.21423e-014 1.27222e-014
rhumerus -25.8971 -64.6437 -1.07583
rradius 15.2808
rwrist 39.1333
rhand -9.00544 7.52079
rfingers 7.12502
rthumb 16.9412 -21.7604
lclavicle 4.21423e-014 1.27222e-014
lhumerus 47.8871 -7.64025 51.3731
lradius 20.362
lwrist -32.0834
lhand -1.8441 24.1197
lfingers 7.12502
lthumb 23.8229 52.6626
rfemur -45.6533 5.25202 23.0118
rtibia 47.9083
rfoot 9.73672 -20.4816
rtoes 12.214
lfemur -29.7915 -4.80695 -24.8917
ltibia 37.8124
lfoot -26.5175 21.3429
ltoes -10.0479
380
root 3.71863 17.5904 -27.1966 18.8863 -6.81542 -2.15174
lowerback -12.2844 -2.64728 0.56053
upperback -8.70025 -3.60441 1.18684
thorax -2.19898 -1.82894 0.556956
lowerneck -18.0838 0.354381 0.418726
upperneck 37.9147 -0.465038 1.56392
head 16.7653 0.0280109 0.511564
rclavicle 1.62506e-014 -1.25234e-014
rhumerus -22.7273 -60.0593 -5.45194
rradius 16.01
rwrist 31.9243
rhand -10.493 8.5189
rfingers 7.12502
rthumb 15.5089 -20.8791
lclavicle 1.62506e-014 -1.25234e-014
lhumerus 46.1859 -6.54018 51.9252
lradius 20.3388
lwrist -29.0658
lhand -3.47615 24.7073
lfingers 7.12502
lthumb 22.2569 53.4457
rfemur -45.7424 4.77485 23.3609
rtibia 48.2751
rfoot 11.8672 -19.9164
rtoes 15.0779
lfemur -30.8952 -5.36609 -24.2831
ltibia 38.0113
lfoot -24.6728 21.8063
ltoes -15.4159
381
root 3.70951 17.647 -27.1609 18.717 -6.74506 -2.57155
lowerback -11.114 -2.47766 1.01063
upperback -9.08175 -3.40192 1.23958
thorax -3.25986 -1.7482 0.45195
lowerneck -16.1936 0.0468614 0.159243
upperneck 37.4614 -0.879731 1.704
head 16.0666 -0.174129 0.531529
rclavicle -5.66536e-015 -2.5842e-015
rhumerus -22.5048 -54.5045 -7.15481
rradius 17.0522
rwrist 24.3553
rhand -11.8218 9.88982
rfingers 7.12502
rthumb 14.2287 -19.6028
lclavicle -5.66536e-015 -2.5842e-015
lhumerus 44.7931 -1.95712 58.7099
lradius 19.7474
lwrist -33.1094
lhand -4.44414 23.5668
lfingers 7.12502
lthumb 21.3274 52.4132
rfemur -45.9998 4.28167 23.8704
rtibia 48.6263
rfoot 13.2117 -22.1286
rtoes 17.9528
lfemur -32.0619 -6.08912 -23.3986
ltibia 38.2569
lfoot -23.2097 21.33
ltoes -16.8296
382
root 3.70151 17.688 -27.128 18.5487 -6.71326 -2.96329
lowerback -10.9728 -2.48743 1.39618
upperback -8.60298 -3.44402 1.39533
thorax -2.84026 -1.77916 0.384996
lowerneck -15.1859 0.0355254 -0.00979832
upperneck 36.5857 -0.835384 1.76839
head 15.385 -0.178194 0.587057
rclavicle 2.33572e-015 1.45113e-014
rhumerus -21.5001 -51.1086 -9.68835
rradius 18.006
rwrist 17.566
rhand -13.2397 11.3435
rfingers 7.12502
rthumb 12.8621 -18.2402
lclavicle 2.33572e-015 1.45113e-014
lhumerus 43.657 -4.75727 53.5488
lradius 20.4436
lwrist -23.0766
lhand -5.93923 23.8967
lfingers 7.12502
lthumb 19.8908 52.8988
rfemur -46.3553 3.87339 24.3536
rtibia 48.981
rfoot 14.5416 -25.1915
rtoes 21.6781
lfemur -33.239 -7.0656 -22.3977
ltibia 38.5394
lfoot -22.5955 20.3624
ltoes -15.4108
383
root 3.69025 17.7181 -27.0933 18.4224 -6.82559 -3.59233
lowerback -9.75604 -2.16999 1.94575
upperback -7.96009 -3.04006 1.42041
thorax -2.84735 -1.59368 0.170268
lowerneck -17.6211 -0.140149 0.400431
upperneck 36.9318 -1.24422 1.71912
head 16.1499 -0.277197 0.426473
rclavicle -4.73853e-014 -2.00773e-014
rhumerus -21.8105 -48.8513 -11.1815
rradius 19.1876
rwrist 10.7991
rhand -14.8403 12.8042
rfingers 7.12502
rthumb 11.3188 -16.8704
lclavicle -4.73853e-014 -2.00773e-014
lhumerus 43.6051 -5.5477 51.8036
lradius 21.1905
lwrist -16.5601
lhand -8.05747 24.8866
lfingers 7.12502
lthumb 17.8535 54.0871
rfemur -46.7264 3.92733 24.9708
rtibia 49.1849
rfoot 14.2615 -28.7356
rtoes 25.6964
lfemur -34.2924 -7.22031 -21.418
ltibia 38.8834
lfoot -21.3196 19.8923
ltoes -15.4454
